<?xml version="1.0" encoding="utf-8"?>
<!-- Generator: Adobe Illustrator 18.0.0, SVG Export Plug-In . SVG Version: 6.00 Build 0)  -->
<!DOCTYPE svg PUBLIC "-//W3C//DTD SVG 1.1//EN" "http://www.w3.org/Graphics/SVG/1.1/DTD/svg11.dtd">
<svg version="1.1" id="Layer_2" xmlns="http://www.w3.org/2000/svg" xmlns:xlink="http://www.w3.org/1999/xlink" x="0px" y="0px"
	 viewBox="0 0 85 18.3" enable-background="new 0 0 85 18.3" xml:space="preserve">
<path fill-rule="evenodd" clip-rule="evenodd" fill="#CD0921" d="M24.8,17.9c-1.2,0.3-2.4,0.4-3.6,0.4c-4.3,0-7.1-2-7.1-6.7
	c0-4.5,2.9-6.4,7-6.4c1.2,0,2.4,0.1,3.6,0.3v2.2c-0.9-0.1-1.6-0.2-2.4-0.2c-3.3,0-4.9,1-4.9,4.3c0,3.1,1.5,4.2,4.9,4.2
	c0.9,0,1.6-0.1,2.4-0.2V17.9z"/>
<path fill="#CD0921" d="M69.1,18h3.2V5.4h-3.2V18z M69.1,2.9h3.2V0h-3.2V2.9z"/>
<path fill-rule="evenodd" clip-rule="evenodd" fill="#CD0921" d="M66.5,17.7c-0.6,0.1-2.8,0.5-5,0.5c-4.1,0-7.1-1.9-7.1-6.5
	c0-4.4,2.7-6.6,6.8-6.6c0.6,0,1.6,0.1,2.1,0.1V0h3.2C66.5,0.6,66.5,17.4,66.5,17.7 M63.4,15.8V7.6c-0.4,0-1.1-0.1-1.8-0.1
	c-2.9,0-4,1.4-4,4.3c0,2.6,1,4.2,3.9,4.2C62.1,16,62.7,15.9,63.4,15.8"/>
<path fill-rule="evenodd" clip-rule="evenodd" fill="#CD0921" d="M52.3,18h-3.1V9.7c0-1.4-0.6-2.2-2.6-2.2c-1.4,0-2.9,0.3-2.9,0.3
	V18h-3.1V5.8c0.2,0,4.2-0.6,6.5-0.6c2.8,0,5.3,0.5,5.3,4.3V18z"/>
<path fill-rule="evenodd" clip-rule="evenodd" fill="#CD0921" d="M38,18c-2.2,0.2-3.9,0.3-5.8,0.3c-3.2,0-5.8-0.5-5.8-4.1
	c0-3.5,3.2-3.7,6.1-3.8c0.7,0,1.5,0,2.3,0c0-2.2-0.1-3-3.3-3c-1.6,0-3.3,0.3-4.3,0.5V5.6c1.2-0.3,3.1-0.4,4.5-0.5
	c3.6,0,6.3,0.4,6.3,4.2V18z M34.8,16.1v-3.6c-0.6,0-1.7,0-2.1,0c-1.9,0-3.1,0.1-3.1,1.9c0,1.8,1.5,1.9,3,1.9
	C33.5,16.2,34,16.2,34.8,16.1"/>
<path fill-rule="evenodd" clip-rule="evenodd" fill="#CD0921" d="M85,17.9c-1.2,0.3-2.4,0.4-3.6,0.4c-4.3,0-7.1-2-7.1-6.7
	c0-4.5,2.9-6.4,7-6.4c1.2,0,2.4,0.1,3.6,0.3v2.2c-0.9-0.1-1.6-0.2-2.4-0.2c-3.3,0-4.9,1-4.9,4.3c0,3.1,1.5,4.2,4.9,4.2
	c0.9,0,1.6-0.1,2.4-0.2V17.9z"/>
<path fill-rule="evenodd" clip-rule="evenodd" fill="#CD0921" d="M12.5,13c0,3.7-2.9,5.3-7.2,5.3c-2.8,0-4.8-0.5-5.1-0.6v-2.6
	c1,0.2,3.1,0.7,4.9,0.7c1.8,0,4.1-0.4,4.1-2.4c0-1.3-1-1.8-2.8-2.3c-0.7-0.2-1.4-0.4-2.1-0.6C1.9,9.8,0,8.8,0,6c0-4,3.2-5,6.9-5
	c2.2,0,4,0.4,4.3,0.5v2.4c-0.4-0.1-2.1-0.5-4-0.5c-1.8,0-3.9,0.2-3.9,2.2c0,1.5,1.2,1.9,2.9,2.3C7,8.2,7.8,8.3,8.6,8.6
	C10.7,9.2,12.5,10.2,12.5,13"/>
</svg>
